# xmcd
#
# Track frame offsets:
#	150
#	5627
#	17734
#	28588
#	37648
#	48270
#	55777
#	71219
#	80032
#	89554
#	99109
#	107151
#	117915
#	130380
#	142191
#	152872
#	161463
#	172579
#	183217
#	204219
#	214083
#	226090
#	239732
#	253189
#
# Disc length: 3550 seconds
#
# Revision: 0
# Processed by: cddbd v1.5.2PL0 Copyright (c) Steve Scherf et al.
# Submitted via: dBpowerAMP V4.0
#
DISCID=3f0ddc18
DTITLE=The Chefs - Records and Tea: The Best Of The Chefs
DYEAR=2012
DGENRE=Pop
TTITLE0=Food
TTITLE1=You Get Everywhere
TTITLE2=Sweetie
TTITLE3=Thrush
TTITLE4=Records And Tea
TTITLE5=Boasting
TTITLE6=24 Hours
TTITLE7=Let's Make Up
TTITLE8=Someone I Know
TTITLE9=You're So Nice
TTITLE10=Toby
TTITLE11=One Fine Day
TTITLE12=I'll Go Too
TTITLE13=Love Is Such A Splendid Thing
TTITLE14=Northbound Train
TTITLE15=Springtime Reggae
TTITLE16=Sweetie
TTITLE17=You Get Everywhere
TTITLE18=Femme Fatale
TTITLE19=Let's Make Up
TTITLE20=Honcho
TTITLE21=Sleeping Dogs Lie
TTITLE22=Sad Boy Style
TTITLE23=Love, It Is Just A Word
EXTD=
EXTT0=
EXTT1=
EXTT2=
EXTT3=
EXTT4=
EXTT5=
EXTT6=
EXTT7=
EXTT8=
EXTT9=
EXTT10=
EXTT11=
EXTT12=
EXTT13=
EXTT14=
EXTT15=
EXTT16=
EXTT17=
EXTT18=
EXTT19=
EXTT20=
EXTT21=
EXTT22=
EXTT23=
PLAYORDER=
